
<svg xmlns="http://www.w3.org/2000/svg">
<g id="star">
<g filter="url(#filter0_d)">
<path d="M13.6702 13.9405L13.4118 13.7845L13.1534 13.9405L8.35152 16.8394L9.62579 11.3771L9.69436 11.0832L9.46625 10.8856L5.22323 7.20986L10.8085 6.73661L11.1089 6.71116L11.2266 6.4336L13.4118 1.28068L15.597 6.43361L15.7147 6.71116L16.0151 6.73661L21.6004 7.20986L17.3574 10.8856L17.1293 11.0832L17.1979 11.3771L18.4721 16.8394L13.6702 13.9405Z" stroke="black"/>
</g>
<g filter="url(#filter1_d)">
<path d="M33.9647 13.9405L33.7062 13.7845L33.4478 13.9405L28.6459 16.8394L29.9202 11.3771L29.9888 11.0832L29.7607 10.8856L25.5177 7.20986L31.1029 6.73661L31.4034 6.71116L31.5211 6.4336L33.7063 1.28068L35.8915 6.43361L36.0092 6.71116L36.3096 6.73661L41.8949 7.20986L37.6518 10.8856L37.4237 11.0832L37.4923 11.3771L38.7666 16.8394L33.9647 13.9405Z" stroke="black"/>
</g>
<g filter="url(#filter2_d)">
<path d="M54.2581 13.9405L53.9997 13.7845L53.7413 13.9405L48.9394 16.8394L50.2137 11.3771L50.2822 11.0832L50.0541 10.8856L45.8111 7.20986L51.3964 6.73661L51.6968 6.71116L51.8145 6.4336L53.9997 1.28068L56.1849 6.43361L56.3026 6.71116L56.603 6.73661L62.1883 7.20986L57.9453 10.8856L57.7172 11.0832L57.7858 11.3771L59.06 16.8394L54.2581 13.9405Z" stroke="black"/>
</g>
<g filter="url(#filter3_d)">
<path d="M74.5525 13.9405L74.2941 13.7845L74.0357 13.9405L69.2338 16.8394L70.5081 11.3771L70.5767 11.0832L70.3486 10.8856L66.1055 7.20986L71.6908 6.73661L71.9912 6.71116L72.1089 6.4336L74.2941 1.28068L76.4794 6.43361L76.5971 6.71116L76.8975 6.73661L82.4828 7.20986L78.2397 10.8856L78.0116 11.0832L78.0802 11.3771L79.3545 16.8394L74.5525 13.9405Z" stroke="black"/>
</g>
<g filter="url(#filter4_d)">
<path d="M94.8465 13.9405L94.5881 13.7845L94.3297 13.9405L89.5278 16.8394L90.8021 11.3771L90.8706 11.0832L90.6425 10.8856L86.3995 7.20986L91.9848 6.73661L92.2852 6.71116L92.4029 6.4336L94.5881 1.28068L96.7733 6.43361L96.891 6.71116L97.1914 6.73661L102.777 7.20986L98.5337 10.8856L98.3056 11.0832L98.3741 11.3771L99.6484 16.8394L94.8465 13.9405Z" stroke="black"/>
</g>
<defs>
<filter id="filter0_d" x="0" y="0" width="26.8237" height="25.8799" filterUnits="userSpaceOnUse" color-interpolation-filters="sRGB">
<feFlood flood-opacity="0" result="BackgroundImageFix"/>
<feColorMatrix in="SourceAlpha" type="matrix" values="0 0 0 0 0 0 0 0 0 0 0 0 0 0 0 0 0 0 127 0"/>
<feOffset dy="4"/>
<feGaussianBlur stdDeviation="2"/>
<feColorMatrix type="matrix" values="0 0 0 0 0 0 0 0 0 0 0 0 0 0 0 0 0 0 0.25 0"/>
<feBlend mode="normal" in2="BackgroundImageFix" result="effect1_dropShadow"/>
<feBlend mode="normal" in="SourceGraphic" in2="effect1_dropShadow" result="shape"/>
</filter>
<filter id="filter1_d" x="20.2944" y="0" width="26.8237" height="25.8799" filterUnits="userSpaceOnUse" color-interpolation-filters="sRGB">
<feFlood flood-opacity="0" result="BackgroundImageFix"/>
<feColorMatrix in="SourceAlpha" type="matrix" values="0 0 0 0 0 0 0 0 0 0 0 0 0 0 0 0 0 0 127 0"/>
<feOffset dy="4"/>
<feGaussianBlur stdDeviation="2"/>
<feColorMatrix type="matrix" values="0 0 0 0 0 0 0 0 0 0 0 0 0 0 0 0 0 0 0.25 0"/>
<feBlend mode="normal" in2="BackgroundImageFix" result="effect1_dropShadow"/>
<feBlend mode="normal" in="SourceGraphic" in2="effect1_dropShadow" result="shape"/>
</filter>
<filter id="filter2_d" x="40.5879" y="0" width="26.8237" height="25.8799" filterUnits="userSpaceOnUse" color-interpolation-filters="sRGB">
<feFlood flood-opacity="0" result="BackgroundImageFix"/>
<feColorMatrix in="SourceAlpha" type="matrix" values="0 0 0 0 0 0 0 0 0 0 0 0 0 0 0 0 0 0 127 0"/>
<feOffset dy="4"/>
<feGaussianBlur stdDeviation="2"/>
<feColorMatrix type="matrix" values="0 0 0 0 0 0 0 0 0 0 0 0 0 0 0 0 0 0 0.25 0"/>
<feBlend mode="normal" in2="BackgroundImageFix" result="effect1_dropShadow"/>
<feBlend mode="normal" in="SourceGraphic" in2="effect1_dropShadow" result="shape"/>
</filter>
<filter id="filter3_d" x="60.8823" y="0" width="26.8237" height="25.8799" filterUnits="userSpaceOnUse" color-interpolation-filters="sRGB">
<feFlood flood-opacity="0" result="BackgroundImageFix"/>
<feColorMatrix in="SourceAlpha" type="matrix" values="0 0 0 0 0 0 0 0 0 0 0 0 0 0 0 0 0 0 127 0"/>
<feOffset dy="4"/>
<feGaussianBlur stdDeviation="2"/>
<feColorMatrix type="matrix" values="0 0 0 0 0 0 0 0 0 0 0 0 0 0 0 0 0 0 0.25 0"/>
<feBlend mode="normal" in2="BackgroundImageFix" result="effect1_dropShadow"/>
<feBlend mode="normal" in="SourceGraphic" in2="effect1_dropShadow" result="shape"/>
</filter>
<filter id="filter4_d" x="81.1763" y="0" width="26.8237" height="25.8799" filterUnits="userSpaceOnUse" color-interpolation-filters="sRGB">
<feFlood flood-opacity="0" result="BackgroundImageFix"/>
<feColorMatrix in="SourceAlpha" type="matrix" values="0 0 0 0 0 0 0 0 0 0 0 0 0 0 0 0 0 0 127 0"/>
<feOffset dy="4"/>
<feGaussianBlur stdDeviation="2"/>
<feColorMatrix type="matrix" values="0 0 0 0 0 0 0 0 0 0 0 0 0 0 0 0 0 0 0.25 0"/>
<feBlend mode="normal" in2="BackgroundImageFix" result="effect1_dropShadow"/>
<feBlend mode="normal" in="SourceGraphic" in2="effect1_dropShadow" result="shape"/>
</filter>
</defs>
</g>
</svg>
