<?xml version="1.0" ?><svg preserveAspectRatio="xMidYMid meet" width="1024" xmlns="http://www.w3.org/2000/svg"><g><title/><rect fill="none" height="402" id="canvas_background" width="582" x="-1" y="-1"/></g><g><title/><g fill="#000000" id="svg_1" transform="translate(0,1024) scale(0.10000000149011612,-0.10000000149011612) "><path d="m4855,9439c-884,-55 -1739,-386 -2430,-940c-659,-528 -1153,-1237 -1414,-2029c-318,-963 -287,-2010 86,-2960c64,-163 217,-472 310,-626c376,-621 876,-1121 1497,-1497c154,-93 464,-246 626,-310c1034,-405 2166,-405 3200,0c162,64 472,217 626,310c621,376 1121,876 1497,1497c93,154 246,464 310,626c377,962 404,2009 77,2990c-120,357 -321,757 -545,1081c-533,768 -1320,1357 -2205,1648c-523,173 -1083,245 -1635,210zm570,-1499c865,-71 1657,-542 2136,-1272c192,-293 341,-653 409,-988c53,-259 68,-644 35,-905c-63,-510 -248,-965 -563,-1383c-103,-137 -291,-334 -427,-449c-256,-215 -606,-411 -930,-522c-555,-188 -1235,-188 -1790,0c-324,111 -674,307 -930,522c-546,459 -902,1116 -990,1832c-22,171 -22,496 -1,673c75,632 363,1222 815,1673c593,590 1401,886 2236,819z" fill="#21759b" id="svg_2"/><path d="m5030,7809c-311,-16 -607,-84 -877,-199c-884,-379 -1494,-1165 -1638,-2110c-22,-149 -30,-456 -16,-620c31,-349 111,-630 271,-955c265,-536 664,-943 1195,-1216c281,-145 519,-222 835,-270c208,-32 572,-32 780,0c316,48 554,125 835,270c531,273 930,680 1195,1216c160,325 240,606 271,955c14,164 6,471 -16,620c-144,945 -754,1731 -1639,2110c-355,152 -772,222 -1196,199zm370,-270c388,-36 816,-187 1140,-404c108,-72 238,-173 274,-214c19,-21 19,-21 -12,-21c-235,0 -434,-226 -408,-462c13,-108 77,-269 160,-398c185,-288 267,-502 282,-733c7,-117 -8,-221 -61,-426c-40,-158 -367,-1231 -375,-1231c-5,0 -880,2587 -880,2601c0,4 46,9 103,13c187,12 209,16 239,47c38,38 39,95 2,133c-33,32 -37,32 -429,9c-277,-16 -304,-16 -610,2c-176,10 -331,18 -344,17c-83,-6 -116,-102 -57,-165c19,-20 35,-25 112,-31c49,-4 116,-11 149,-14l60,-7l188,-517l189,-518l-263,-795c-145,-437 -265,-795 -269,-795c-6,0 -890,2600 -890,2619c0,6 15,11 33,11c78,1 270,21 288,31c65,35 50,158 -22,177c-16,4 -109,2 -207,-5c-239,-16 -632,-28 -632,-19c0,11 78,124 139,201c275,348 670,619 1130,774c197,67 362,103 571,124c79,8 292,6 400,-4zm1974,-1366c106,-213 173,-422 216,-673c87,-507 8,-1021 -226,-1480c-185,-363 -496,-710 -855,-951c-50,-33 -92,-59 -94,-57c-1,2 181,536 405,1188c225,652 423,1239 440,1304c65,245 93,504 73,679c-5,42 -8,77 -6,77c1,0 23,-39 47,-87zm-3820,-1662c317,-866 574,-1576 572,-1579c-3,-2 -47,19 -98,48c-715,406 -1163,1067 -1259,1855c-19,160 -15,427 9,586c26,169 48,274 73,359c32,111 113,320 120,312c3,-4 266,-715 583,-1581zm2063,-666c201,-545 367,-1000 370,-1011c4,-19 -5,-24 -113,-54c-143,-40 -331,-75 -484,-91c-138,-14 -436,-7 -562,15c-106,18 -318,75 -318,86c0,5 160,480 355,1056c195,576 355,1050 356,1053c2,14 48,-110 396,-1054z" fill="#21759b" id="svg_3"/></g></g></svg>